<?xml version="1.0" encoding="utf-8"?>
<!-- Generator: Adobe Illustrator 16.0.0, SVG Export Plug-In . SVG Version: 6.00 Build 0)  -->
<!DOCTYPE svg PUBLIC "-//W3C//DTD SVG 1.1//EN" "http://www.w3.org/Graphics/SVG/1.1/DTD/svg11.dtd">
<svg version="1.1" id="圖層_1" xmlns="http://www.w3.org/2000/svg" xmlns:xlink="http://www.w3.org/1999/xlink" x="0px" y="0px"
	 width="27px" height="76.25px" viewBox="174.75 544.888 27 76.25" enable-background="new 174.75 544.888 27 76.25"
	 xml:space="preserve">
<path fill="#DBB389" d="M177.041,561.6c1.198,0,4.133,0.137,6.654,0.137h8.962c1.731,0,4.071-0.051,5.14-0.137
	c0.092,0.041,0.227,0.172,0.227,0.268c-0.313,1.238-0.719,4.437-0.756,6.338c-0.271,0.316-1.774,0.267-1.992,0.086
	c-0.051-1.233-0.271-1.854-0.492-2.612c-0.354-1.106-0.803-1.506-2.033-1.597c-0.67-0.041-6.482-0.041-6.877,0
	c-0.355,0.091-0.625,0.705-0.625,0.978c0,3.056-0.04,5.675-0.04,8.647c0,0.086,0.144,0.313,0.269,0.313
	c2.312,0,4.879,0.039,6.648-0.137c0.665-0.091,1.02-0.488,1.237-1.151c0.178-0.533,0.356-1.244,0.493-1.953
	c0.438-0.183,1.813-0.086,2.039,0.176c-0.097,1.021-0.313,2.709-0.313,4.395c0,1.506,0.045,2.971,0.085,4.34
	c-0.267,0.227-1.812,0.268-2.079,0c-0.227-1.063-0.227-1.455-0.447-2.033c-0.182-0.67-0.619-0.977-1.244-1.067
	c-1.459-0.171-4.39-0.136-6.424-0.136c-0.125,0-0.267,0.183-0.267,0.357c0,2.879,0,6.342,0.086,8.119
	c0,0.711,0.442,1.547,1.022,1.769c0.881,0.269,6.514,0.231,7.49,0.231c1.196,0,1.86-0.362,2.793-1.688
	c0.705-0.936,1.557-2.753,2.039-3.814c0.356-0.05,1.637,0.349,1.861,0.66c-0.229,1.465-1.146,4.793-1.953,6.389
	c-0.217,0.525-0.566,0.887-2.834,0.887c-4.695,0-9.001-0.178-12.232-0.178c-2.971,0-5.989,0.139-7.857,0.139
	c-0.216-0.178-0.262-1.521-0.04-1.777c1.556-0.182,2.97-0.313,3.815-0.533c1.065-0.262,1.379-0.846,1.461-2.262
	c0.09-0.754,0.045-5.406,0.045-10.331c0-3.9,0-7.672-0.045-8.467c-0.082-1.476-0.272-1.867-1.279-2.18
	c-0.624-0.173-1.471-0.308-2.668-0.482C176.693,563.02,176.779,561.822,177.041,561.6z"/>
</svg>
