<?xml version="1.0" encoding="utf-8"?>
<!-- Generator: Adobe Illustrator 16.0.0, SVG Export Plug-In . SVG Version: 6.00 Build 0)  -->
<!DOCTYPE svg PUBLIC "-//W3C//DTD SVG 1.1//EN" "http://www.w3.org/Graphics/SVG/1.1/DTD/svg11.dtd">
<svg version="1.1" id="圖層_1" xmlns="http://www.w3.org/2000/svg" xmlns:xlink="http://www.w3.org/1999/xlink" x="0px" y="0px"
	 width="256px" height="76px" viewBox="0 0 256 76" enable-background="new 0 0 256 76" xml:space="preserve">
<g>
	<path fill="#FFFFFF" d="M55.346,16.587c1.465,0,4.133,0.137,6.389,0.137c3.196,0,4.838-0.096,5.899-0.137
		c0.267,0.137,0.317,1.551,0,1.732c-0.981,0.221-1.862,0.402-2.522,0.568c-0.896,0.271-0.98,0.852-0.855,1.557
		c0.715,3.457,2.936,11.578,4.4,16.848c0.045,0.086,0.131,0.051,0.221,0c2.251-6.029,5.015-13.965,6.555-19.064
		c0.852,0.092,2.215,0.092,2.895,0c1.369,4.48,5.312,15.793,6.73,19.6c0.046,0.045,0.222,0.045,0.268-0.041
		c1.283-3.902,3.951-12.596,4.787-16.104c0.362-1.592,0.362-2.479-1.067-2.875c-0.75-0.182-1.505-0.318-2.738-0.488
		c-0.362-0.227-0.227-1.596,0.04-1.732c1.107,0,3.504,0.137,5.452,0.137c3.287,0,4.657-0.137,5.588-0.137
		c0.227,0.223,0.227,1.551,0,1.732c-0.75,0.17-1.198,0.266-1.817,0.438c-1.117,0.357-1.822,0.852-2.481,2.617
		c-2.039,5.367-5.714,16.855-7.713,23.063c-0.538-0.051-2.175-0.051-2.753,0.045c-0.977-3.6-5.498-16.718-6.741-19.83
		c-0.045,0-0.136,0.057-0.181,0.096c-2.342,6.338-5.226,14.414-6.953,19.688c-0.584-0.051-2.094-0.051-2.708,0.045
		c-1.334-5.633-4.792-18.585-6.212-23.021c-0.529-1.59-0.932-2.256-2.084-2.613c-0.756-0.221-1.279-0.307-2.567-0.527
		C55.004,18.093,55.039,16.759,55.346,16.587z"/>
	<path fill="#FFFFFF" d="M98.025,16.587c1.197,0,4.128,0.137,6.654,0.137h8.956c1.737,0,4.078-0.051,5.146-0.137
		c0.085,0.041,0.227,0.172,0.227,0.268c-0.313,1.238-0.721,4.436-0.766,6.338c-0.262,0.316-1.767,0.266-1.983,0.086
		c-0.05-1.234-0.276-1.854-0.493-2.613c-0.357-1.107-0.806-1.506-2.034-1.596c-0.675-0.041-6.483-0.041-6.876,0
		c-0.357,0.09-0.625,0.705-0.625,0.977c0,3.055-0.04,5.674-0.04,8.648c0,0.086,0.136,0.313,0.262,0.313
		c2.306,0,4.878,0.039,6.65-0.137c0.669-0.09,1.021-0.488,1.243-1.152c0.176-0.533,0.357-1.244,0.488-1.953
		c0.443-0.182,1.817-0.086,2.044,0.176c-0.096,1.021-0.308,2.709-0.308,4.395c0,1.506,0.041,2.971,0.081,4.34
		c-0.267,0.227-1.817,0.268-2.079,0c-0.227-1.063-0.227-1.455-0.448-2.033c-0.181-0.67-0.619-0.977-1.243-1.068
		c-1.46-0.17-4.39-0.135-6.429-0.135c-0.126,0-0.262,0.182-0.262,0.357c0,2.879,0,6.342,0.086,8.119
		c0,0.711,0.442,1.547,1.021,1.769c0.881,0.268,6.515,0.231,7.491,0.231c1.193,0,1.862-0.362,2.794-1.688
		c0.704-0.936,1.556-2.753,2.033-3.815c0.362-0.049,1.646,0.348,1.868,0.66c-0.222,1.465-1.153,4.793-1.953,6.389
		c-0.217,0.526-0.574,0.886-2.834,0.886c-4.697,0-9.002-0.177-12.238-0.177c-2.971,0-5.986,0.138-7.854,0.138
		c-0.217-0.177-0.267-1.521-0.035-1.777c1.54-0.182,2.965-0.313,3.811-0.533c1.058-0.262,1.38-0.846,1.46-2.262
		c0.086-0.754,0.046-5.406,0.046-10.331c0-3.9,0-7.672-0.046-8.467c-0.08-1.475-0.271-1.867-1.278-2.18
		c-0.635-0.172-1.471-0.307-2.668-0.482C97.678,18.007,97.764,16.81,98.025,16.587z"/>
	<path fill="#FFFFFF" d="M124.47,16.587c1.51,0,3.015,0.137,6.207,0.137c3.458,0,5.06-0.096,6.03-0.137
		c0.271,0.268,0.227,1.42,0,1.732c-1.232,0.131-1.998,0.352-2.607,0.438c-1.066,0.271-1.203,0.887-1.248,1.688
		c-0.08,1.73-0.131,4.57-0.131,9.131c0,6.787,0,9.092,0.131,10.818c0.045,0.721,0.756,1.158,0.937,1.248
		c1.323,0.354,5.142,0.309,7.226,0.309c0.971,0,1.816-0.268,2.799-1.818c0.84-1.283,1.856-3.322,2.606-5.059
		c0.448-0.041,1.556,0.402,1.828,0.754c-0.317,1.828-1.651,6.52-2.532,7.99c-0.131,0.393-0.624,0.568-1.958,0.568
		c-3.142,0-10.684-0.218-13.028-0.218c-2.312,0-6.394,0.138-7.188,0.138c-0.267-0.177-0.312-1.603-0.045-1.777
		c1.641-0.182,2.486-0.221,3.468-0.488c1.058-0.307,1.238-0.926,1.324-1.646c0.086-1.231,0.131-8.022,0.131-10.591
		c0-4.656,0.045-7.41-0.045-8.643c-0.041-1.646-0.268-2.18-1.369-2.402c-0.574-0.131-1.642-0.307-2.668-0.438
		C124.122,18.007,124.203,16.81,124.47,16.587z"/>
	<path fill="#FFFFFF" d="M150.602,16.587c1.506,0,3.012,0.137,6.207,0.137c3.459,0,5.051-0.096,6.036-0.137
		c0.257,0.268,0.212,1.42,0,1.732c-1.249,0.131-2.004,0.352-2.628,0.438c-1.057,0.271-1.197,0.887-1.232,1.688
		c-0.092,1.73-0.137,4.57-0.137,9.131c0,6.787,0,9.092,0.137,10.818c0.035,0.721,0.755,1.158,0.932,1.248
		c1.329,0.354,5.145,0.309,7.225,0.309c0.977,0,1.816-0.268,2.799-1.818c0.841-1.283,1.856-3.322,2.612-5.059
		c0.443-0.041,1.552,0.402,1.813,0.754c-0.303,1.828-1.637,6.52-2.518,7.99c-0.137,0.393-0.625,0.568-1.953,0.568
		c-3.156,0-10.684-0.218-13.039-0.218c-2.306,0-6.383,0.138-7.185,0.138c-0.267-0.177-0.307-1.603-0.04-1.777
		c1.643-0.182,2.479-0.221,3.459-0.488c1.057-0.307,1.233-0.926,1.323-1.646c0.091-1.231,0.137-8.022,0.137-10.591
		c0-4.656,0.045-7.41-0.046-8.643c-0.045-1.646-0.268-2.18-1.369-2.402c-0.589-0.131-1.646-0.307-2.662-0.438
		C150.249,18.007,150.335,16.81,150.602,16.587z"/>
	<path fill="#FFFFFF" d="M177.041,16.587c1.198,0,4.133,0.137,6.654,0.137h8.962c1.731,0,4.071-0.051,5.14-0.137
		c0.092,0.041,0.227,0.172,0.227,0.268c-0.313,1.238-0.719,4.436-0.756,6.338c-0.271,0.316-1.775,0.266-1.992,0.086
		c-0.051-1.234-0.271-1.854-0.493-2.613c-0.353-1.107-0.802-1.506-2.033-1.596c-0.67-0.041-6.483-0.041-6.877,0
		c-0.356,0.09-0.625,0.705-0.625,0.977c0,3.055-0.04,5.674-0.04,8.648c0,0.086,0.143,0.313,0.268,0.313
		c2.312,0,4.879,0.039,6.649-0.137c0.665-0.09,1.019-0.488,1.237-1.152c0.178-0.533,0.357-1.244,0.494-1.953
		c0.438-0.182,1.813-0.086,2.039,0.176c-0.097,1.021-0.313,2.709-0.313,4.395c0,1.506,0.045,2.971,0.085,4.34
		c-0.267,0.227-1.812,0.268-2.079,0c-0.227-1.063-0.227-1.455-0.447-2.033c-0.182-0.67-0.619-0.977-1.244-1.068
		c-1.459-0.17-4.39-0.135-6.424-0.135c-0.125,0-0.267,0.182-0.267,0.357c0,2.879,0,6.342,0.086,8.119
		c0,0.711,0.442,1.547,1.022,1.769c0.881,0.268,6.514,0.231,7.49,0.231c1.197,0,1.861-0.362,2.793-1.688
		c0.705-0.936,1.557-2.753,2.039-3.815c0.357-0.049,1.637,0.348,1.862,0.66c-0.228,1.465-1.147,4.793-1.953,6.389
		c-0.217,0.526-0.567,0.886-2.834,0.886c-4.696,0-9.001-0.177-12.233-0.177c-2.97,0-5.989,0.138-7.857,0.138
		c-0.216-0.177-0.262-1.521-0.04-1.777c1.556-0.182,2.97-0.313,3.815-0.533c1.066-0.262,1.379-0.846,1.461-2.262
		c0.09-0.754,0.045-5.406,0.045-10.331c0-3.9,0-7.672-0.045-8.467c-0.082-1.475-0.272-1.867-1.279-2.18
		c-0.624-0.172-1.471-0.307-2.668-0.482C176.693,18.007,176.779,16.81,177.041,16.587z"/>
	<path fill="#FFFFFF" d="M203.391,16.587c0.986,0,4.088,0.137,5.598,0.137c3.635,0,6.162-0.051,7.798-0.051
		c5.286,0,8.297,3.197,8.297,7.008c0,3.639-2.222,5.895-5.01,7.184c-0.091,0.045-0.136,0.262-0.091,0.357
		c1.552,2.436,4.828,6.65,7.002,9.006c1.691,1.723,2.222,1.901,5.373,2.426c0.216,0.131,0,1.652-0.357,1.732
		c-2.085,0-5.859,0-7.673-0.927c-0.659-0.397-1.374-0.933-2.255-1.953c-1.696-2.079-4.133-5.85-5.814-8.338
		c-0.262-0.346-0.755-0.527-1.107-0.568c-0.578-0.09-2.657-0.09-3.326-0.09c-0.047,0-0.178,0.17-0.178,0.262
		c0,2.441,0,6.297,0.086,7.456c0.092,1.192,0.449,1.688,1.597,1.901c0.705,0.179,1.505,0.263,2.703,0.397
		c0.227,0.222,0.136,1.603-0.132,1.777c-1.017,0-2.924-0.137-6.508-0.137c-2.94,0-5.069,0.137-6.076,0.137
		c-0.269-0.318-0.269-1.521,0-1.777c1.007-0.09,1.722-0.221,2.386-0.356c1.071-0.221,1.516-0.664,1.596-2.392
		c0.091-0.893,0.132-6.519,0.132-9.005c0-5.941,0-8.912-0.041-9.928c-0.039-1.334-0.302-1.777-1.505-2.09
		c-0.761-0.172-1.596-0.307-2.612-0.438C203.047,18.048,203.133,16.759,203.391,16.587z M212.094,18.847
		c-0.136,0.092-0.361,0.484-0.361,0.711c-0.086,1.637-0.086,7.535-0.086,10.598c0,0.094,0.086,0.227,0.222,0.227
		c4.214,0,5.457-0.227,6.03-0.539c1.471-0.756,2.612-2.432,2.612-4.697c0-4.168-1.993-6.561-6.741-6.561
		C213.508,18.585,212.577,18.671,212.094,18.847z"/>
	<path fill="#FFFFFF" d="M228.203,16.587c0.926,0,3.72,0.137,5.588,0.137c1.54,0,5.009-0.096,5.537-0.137
		c0.268,0.172,0.357,1.506,0.046,1.732c-0.539,0.131-1.41,0.266-1.731,0.352c-0.528,0.176-0.442,0.619-0.263,1.018
		c1.153,2.441,4.431,8.83,5.366,10.336c0.041,0.045,0.262,0.045,0.357-0.047c1.545-2.432,4.605-8.115,5.36-9.75
		c0.263-0.67,0.356-1.289-0.805-1.506c-0.614-0.137-1.279-0.232-2.296-0.402c-0.228-0.271-0.092-1.596,0.171-1.732
		c1.42,0.041,3.6,0.137,5.241,0.137c2.472,0,3.589-0.051,4.964-0.137c0.307,0.086,0.352,1.551,0.079,1.732
		c-0.658,0.131-1.192,0.221-1.856,0.402c-1.334,0.307-1.953,0.791-3.413,2.92c-1.953,2.975-4.924,8.201-6.115,10.467
		c-0.228,0.402-0.449,1.238-0.449,1.6c0,1.365,0.046,3.232,0.092,5.537c0.045,2.039,0.313,2.574,1.369,2.836
		c0.76,0.18,2.049,0.311,3.246,0.488c0.166,0.18,0.086,1.561-0.182,1.736c-1.289,0-3.685-0.138-6.609-0.138
		c-3.726,0-6.025,0.138-7.185,0.138c-0.221-0.177-0.267-1.603,0-1.736c1.334-0.178,2.613-0.309,3.414-0.529
		c1.197-0.307,1.556-0.891,1.556-2.352c0.086-2.174,0.045-3.146,0.045-5.101c0-0.619-0.135-1.551-0.402-2.129
		c-0.881-2.078-3.413-6.74-5.32-10.148c-1.551-2.754-1.953-3.197-3.816-3.686c-0.532-0.137-1.103-0.176-2.084-0.307
		C227.891,18.093,227.926,16.81,228.203,16.587z"/>
	<g>
		<path fill="#FFFFFF" d="M7.617,16.587c1.586,0,3.73,0.166,8.688,0.166c3.448,0,5.593-0.166,7.279-0.166
			c0.287,0.227,0.287,1.975-0.06,2.195c-1.294,0.232-2.307,0.459-3.041,0.625c-0.967,0.287-1.294,0.799-1.35,2.148
			c-0.121,2.422-0.121,19.811-0.287,24.884c-0.227,4.449-0.739,7.615-2.371,10.49c-2.995,5.307-7.792,8.187-11.563,8.187
			c-2.14,0-4.129-0.851-4.688-1.979C0.172,62.968,0,62.354,0,62.236c0.172-1.071,0.957-3.438,1.359-4.289
			c1.677,1.134,4.903,2.541,6.711,2.541c1.354,0,2.592-0.342,3.549-1.524c1.53-1.979,1.757-3.84,1.807-8.737
			c0.056-7.234,0.056-24.956-0.105-27.769c-0.12-1.471-0.287-2.488-1.862-2.932c-1.072-0.285-2.095-0.463-3.952-0.744
			C7.219,18.45,7.335,16.813,7.617,16.587z"/>
	</g>
	<g>
		<path fill="#FFFFFF" d="M43.354,16.724l-2.739,2.33c1.702-0.025,5.492-0.02,6.031,0.016c1.244,0.09,1.677,0.488,2.034,1.596
			c0.227,0.76,0.442,1.379,0.493,2.613c0.222,0.18,1.727,0.23,1.993-0.086c0.04-1.902,0.443-5.1,0.755-6.338
			c0-0.096-0.131-0.227-0.227-0.268c-1.066,0.086-3.407,0.137-5.139,0.137H43.354z"/>
		<path fill="#FFFFFF" d="M52.547,36.411c-0.493,1.063-1.34,2.881-2.049,3.815c-0.932,1.324-1.591,1.688-2.789,1.688
			c-0.981,0-6.609,0.035-7.496-0.231c-0.574-0.222-1.021-1.058-1.021-1.769c-0.081-1.777-0.081-5.24-0.081-8.119
			c0-0.176,0.136-0.357,0.262-0.357c2.039,0,4.964-0.035,6.429,0.135c0.619,0.092,1.058,0.398,1.238,1.068
			c0.222,0.578,0.222,0.971,0.448,2.033c0.267,0.268,1.813,0.227,2.079,0c-0.04-1.369-0.086-2.834-0.086-4.34
			c0-1.686,0.227-3.373,0.313-4.395c-0.227-0.262-1.596-0.357-2.039-0.176c-0.131,0.709-0.302,1.42-0.493,1.953
			c-0.222,0.664-0.569,1.063-1.238,1.152c-1.772,0.176-4.339,0.137-6.65,0.137c-0.126,0-0.262-0.227-0.262-0.313
			c0-2.885,0.035-5.451,0.035-8.406l-4.345,3.689c0.006,1.535,0.006,3.459,0.006,5.426c0,4.924,0.04,9.577-0.051,10.331
			c-0.08,1.416-0.393,2-1.455,2.262c-0.851,0.221-2.265,0.352-3.815,0.533c-0.227,0.256-0.182,1.602,0.045,1.777
			c1.863,0,4.878-0.138,7.849-0.138c3.236,0,7.536,0.176,12.232,0.176c2.266,0,2.618-0.356,2.835-0.885
			c0.806-1.597,1.736-4.924,1.953-6.389C54.183,36.759,52.895,36.362,52.547,36.411z"/>
	</g>
	
		<rect x="38.415" y="6.471" transform="matrix(-0.6466 -0.7629 0.7629 -0.6466 48.7802 63.3325)" fill="#FFFFFF" width="1.293" height="27.79"/>
</g>
</svg>
