<?xml version="1.0" encoding="utf-8"?>
<!-- Generator: Adobe Illustrator 16.0.0, SVG Export Plug-In . SVG Version: 6.00 Build 0)  -->
<!DOCTYPE svg PUBLIC "-//W3C//DTD SVG 1.1//EN" "http://www.w3.org/Graphics/SVG/1.1/DTD/svg11.dtd">
<svg version="1.1" id="圖層_1" xmlns="http://www.w3.org/2000/svg" xmlns:xlink="http://www.w3.org/1999/xlink" x="0px" y="0px"
	 width="31.069px" height="76.25px" viewBox="201.5 630.286 31.069 76.25" enable-background="new 201.5 630.286 31.069 76.25"
	 xml:space="preserve">
<path fill="#DBB389" d="M203.391,646.998c0.986,0,4.088,0.137,5.599,0.137c3.635,0,6.161-0.051,7.798-0.051
	c5.286,0,8.297,3.197,8.297,7.008c0,3.639-2.223,5.896-5.01,7.184c-0.092,0.046-0.137,0.263-0.092,0.357
	c1.553,2.437,4.828,6.65,7.002,9.007c1.691,1.723,2.223,1.9,5.373,2.426c0.217,0.131,0,1.652-0.356,1.732
	c-2.085,0-5.858,0-7.673-0.928c-0.659-0.396-1.374-0.934-2.255-1.953c-1.696-2.078-4.134-5.851-5.814-8.338
	c-0.262-0.347-0.755-0.526-1.106-0.567c-0.578-0.09-2.657-0.09-3.326-0.09c-0.047,0-0.178,0.17-0.178,0.262
	c0,2.44,0,6.296,0.086,7.456c0.092,1.191,0.449,1.688,1.597,1.9c0.705,0.18,1.505,0.264,2.703,0.396
	c0.228,0.223,0.136,1.604-0.132,1.777c-1.018,0-2.924-0.137-6.508-0.137c-2.94,0-5.069,0.137-6.076,0.137
	c-0.27-0.318-0.27-1.521,0-1.777c1.007-0.09,1.722-0.221,2.386-0.355c1.071-0.221,1.517-0.664,1.596-2.393
	c0.091-0.893,0.132-6.519,0.132-9.005c0-5.94,0-8.912-0.041-9.928c-0.039-1.334-0.302-1.777-1.505-2.09
	c-0.761-0.172-1.596-0.307-2.612-0.438C203.047,648.459,203.133,647.17,203.391,646.998z M212.094,649.258
	c-0.136,0.092-0.361,0.484-0.361,0.711c-0.086,1.637-0.086,7.535-0.086,10.598c0,0.095,0.086,0.228,0.223,0.228
	c4.214,0,5.457-0.228,6.029-0.538c1.472-0.757,2.612-2.433,2.612-4.697c0-4.168-1.993-6.562-6.741-6.562
	C213.508,648.996,212.577,649.082,212.094,649.258z"/>
</svg>
