<?xml version="1.0" encoding="utf-8"?>
<!-- Generator: Adobe Illustrator 16.0.0, SVG Export Plug-In . SVG Version: 6.00 Build 0)  -->
<!DOCTYPE svg PUBLIC "-//W3C//DTD SVG 1.1//EN" "http://www.w3.org/Graphics/SVG/1.1/DTD/svg11.dtd">
<svg version="1.1" id="圖層_1" xmlns="http://www.w3.org/2000/svg" xmlns:xlink="http://www.w3.org/1999/xlink" x="0px" y="0px"
	 width="43.1px" height="76.25px" viewBox="54.583 197.207 43.1 76.25" enable-background="new 54.583 197.207 43.1 76.25"
	 xml:space="preserve">
<path fill="#DBB389" d="M55.346,213.919c1.465,0,4.133,0.137,6.389,0.137c3.196,0,4.838-0.096,5.899-0.137
	c0.267,0.137,0.317,1.551,0,1.732c-0.981,0.221-1.862,0.402-2.522,0.568c-0.896,0.271-0.98,0.852-0.855,1.557
	c0.715,3.457,2.936,11.578,4.4,16.848c0.045,0.086,0.131,0.051,0.221,0c2.251-6.029,5.015-13.965,6.555-19.064
	c0.852,0.092,2.215,0.092,2.895,0c1.369,4.48,5.312,15.793,6.73,19.601c0.046,0.045,0.222,0.045,0.268-0.041
	c1.283-3.901,3.951-12.597,4.787-16.104c0.362-1.592,0.362-2.479-1.067-2.875c-0.75-0.182-1.505-0.318-2.738-0.488
	c-0.362-0.227-0.227-1.596,0.04-1.731c1.107,0,3.504,0.138,5.452,0.138c3.287,0,4.657-0.138,5.588-0.138
	c0.227,0.224,0.227,1.552,0,1.731c-0.75,0.17-1.198,0.267-1.817,0.438c-1.117,0.356-1.822,0.853-2.481,2.617
	c-2.039,5.367-5.714,16.854-7.713,23.063c-0.538-0.051-2.175-0.051-2.753,0.045c-0.977-3.6-5.498-16.718-6.741-19.829
	c-0.045,0-0.136,0.057-0.181,0.096c-2.342,6.338-5.226,14.414-6.953,19.688c-0.584-0.051-2.094-0.051-2.708,0.045
	c-1.334-5.633-4.792-18.585-6.212-23.021c-0.529-1.59-0.932-2.256-2.084-2.612c-0.756-0.222-1.279-0.308-2.567-0.527
	C55.004,215.425,55.039,214.091,55.346,213.919z"/>
</svg>
