<?xml version="1.0" encoding="utf-8"?>
<!-- Generator: Adobe Illustrator 16.0.0, SVG Export Plug-In . SVG Version: 6.00 Build 0)  -->
<!DOCTYPE svg PUBLIC "-//W3C//DTD SVG 1.1//EN" "http://www.w3.org/Graphics/SVG/1.1/DTD/svg11.dtd">
<svg version="1.1" id="圖層_1" xmlns="http://www.w3.org/2000/svg" xmlns:xlink="http://www.w3.org/1999/xlink" x="0px" y="0px"
	 width="28.283px" height="76.25px" viewBox="227.842 716.304 28.283 76.25" enable-background="new 227.842 716.304 28.283 76.25"
	 xml:space="preserve">
<path fill="#DBB389" d="M228.203,733.016c0.926,0,3.72,0.137,5.588,0.137c1.54,0,5.009-0.096,5.537-0.137
	c0.268,0.172,0.357,1.506,0.046,1.732c-0.539,0.131-1.41,0.266-1.731,0.352c-0.527,0.176-0.441,0.619-0.263,1.018
	c1.153,2.441,4.431,8.83,5.366,10.336c0.041,0.045,0.262,0.045,0.357-0.047c1.545-2.432,4.604-8.115,5.359-9.75
	c0.264-0.67,0.355-1.289-0.805-1.506c-0.614-0.137-1.279-0.232-2.297-0.402c-0.228-0.271-0.092-1.596,0.172-1.731
	c1.42,0.041,3.6,0.138,5.24,0.138c2.473,0,3.59-0.052,4.965-0.138c0.307,0.086,0.352,1.552,0.078,1.731
	c-0.657,0.132-1.191,0.222-1.855,0.402c-1.334,0.307-1.953,0.791-3.413,2.92c-1.953,2.976-4.924,8.201-6.114,10.467
	c-0.229,0.402-0.449,1.238-0.449,1.601c0,1.365,0.046,3.231,0.092,5.537c0.045,2.039,0.313,2.574,1.369,2.836
	c0.76,0.18,2.049,0.311,3.246,0.488c0.166,0.18,0.086,1.561-0.183,1.736c-1.289,0-3.685-0.139-6.608-0.139
	c-3.727,0-6.025,0.139-7.186,0.139c-0.221-0.178-0.267-1.604,0-1.736c1.334-0.178,2.613-0.309,3.414-0.529
	c1.197-0.307,1.557-0.891,1.557-2.352c0.086-2.175,0.045-3.146,0.045-5.102c0-0.618-0.136-1.551-0.402-2.129
	c-0.881-2.078-3.413-6.739-5.32-10.147c-1.551-2.754-1.953-3.197-3.816-3.687c-0.531-0.138-1.103-0.177-2.084-0.308
	C227.891,734.521,227.926,733.238,228.203,733.016z"/>
</svg>
