<?xml version="1.0" encoding="utf-8"?>
<!-- Generator: Adobe Illustrator 16.0.0, SVG Export Plug-In . SVG Version: 6.00 Build 0)  -->
<!DOCTYPE svg PUBLIC "-//W3C//DTD SVG 1.1//EN" "http://www.w3.org/Graphics/SVG/1.1/DTD/svg11.dtd">
<svg version="1.1" id="圖層_1" xmlns="http://www.w3.org/2000/svg" xmlns:xlink="http://www.w3.org/1999/xlink" x="0px" y="0px"
	 width="26.25px" height="76.25px" viewBox="148.75 458.565 26.25 76.25" enable-background="new 148.75 458.565 26.25 76.25"
	 xml:space="preserve">
<path fill="#DBB389" d="M150.602,475.277c1.506,0,3.013,0.137,6.207,0.137c3.459,0,5.051-0.096,6.036-0.137
	c0.257,0.268,0.212,1.42,0,1.732c-1.249,0.131-2.004,0.352-2.628,0.438c-1.057,0.271-1.197,0.887-1.232,1.688
	c-0.092,1.73-0.137,4.57-0.137,9.132c0,6.786,0,9.092,0.137,10.818c0.035,0.721,0.756,1.158,0.933,1.248
	c1.329,0.354,5.146,0.309,7.226,0.309c0.977,0,1.815-0.268,2.799-1.818c0.841-1.283,1.855-3.321,2.611-5.059
	c0.443-0.041,1.553,0.401,1.813,0.754c-0.304,1.827-1.638,6.52-2.519,7.99c-0.137,0.393-0.625,0.568-1.953,0.568
	c-3.155,0-10.684-0.219-13.039-0.219c-2.306,0-6.383,0.139-7.185,0.139c-0.267-0.178-0.307-1.604-0.04-1.777
	c1.643-0.182,2.479-0.221,3.459-0.488c1.057-0.307,1.233-0.926,1.323-1.646c0.091-1.23,0.137-8.021,0.137-10.591
	c0-4.656,0.045-7.41-0.046-8.643c-0.045-1.646-0.268-2.18-1.369-2.402c-0.589-0.131-1.646-0.307-2.662-0.438
	C150.249,476.697,150.335,475.5,150.602,475.277z"/>
</svg>
