<?xml version="1.0" encoding="utf-8"?>
<!-- Generator: Adobe Illustrator 16.0.0, SVG Export Plug-In . SVG Version: 6.00 Build 0)  -->
<!DOCTYPE svg PUBLIC "-//W3C//DTD SVG 1.1//EN" "http://www.w3.org/Graphics/SVG/1.1/DTD/svg11.dtd">
<svg version="1.1" id="圖層_1" xmlns="http://www.w3.org/2000/svg" xmlns:xlink="http://www.w3.org/1999/xlink" x="0px" y="0px"
	 width="26.625px" height="76.25px" viewBox="122.375 371.232 26.625 76.25" enable-background="new 122.375 371.232 26.625 76.25"
	 xml:space="preserve">
<path fill="#DBB389" d="M124.47,387.944c1.51,0,3.015,0.137,6.207,0.137c3.458,0,5.06-0.096,6.03-0.137
	c0.271,0.268,0.227,1.42,0,1.732c-1.232,0.131-1.998,0.352-2.607,0.438c-1.065,0.271-1.203,0.887-1.248,1.688
	c-0.08,1.73-0.131,4.57-0.131,9.132c0,6.786,0,9.092,0.131,10.818c0.045,0.721,0.756,1.158,0.938,1.248
	c1.322,0.354,5.143,0.309,7.227,0.309c0.971,0,1.815-0.268,2.799-1.818c0.84-1.283,1.855-3.321,2.605-5.059
	c0.448-0.041,1.557,0.401,1.828,0.754c-0.316,1.827-1.65,6.52-2.532,7.99c-0.131,0.393-0.624,0.568-1.958,0.568
	c-3.142,0-10.684-0.219-13.027-0.219c-2.313,0-6.395,0.139-7.188,0.139c-0.267-0.178-0.312-1.604-0.045-1.777
	c1.641-0.182,2.486-0.221,3.468-0.488c1.058-0.307,1.238-0.926,1.324-1.646c0.086-1.23,0.131-8.021,0.131-10.591
	c0-4.656,0.045-7.41-0.045-8.643c-0.041-1.646-0.268-2.18-1.369-2.402c-0.574-0.131-1.642-0.307-2.668-0.438
	C124.122,389.364,124.203,388.167,124.47,387.944z"/>
</svg>
