<?xml version="1.0" encoding="utf-8"?>
<!-- Generator: Adobe Illustrator 16.0.0, SVG Export Plug-In . SVG Version: 6.00 Build 0)  -->
<!DOCTYPE svg PUBLIC "-//W3C//DTD SVG 1.1//EN" "http://www.w3.org/Graphics/SVG/1.1/DTD/svg11.dtd">
<svg version="1.1" id="圖層_1" xmlns="http://www.w3.org/2000/svg" xmlns:xlink="http://www.w3.org/1999/xlink" x="0px" y="0px"
	 width="25.75px" height="76.25px" viewBox="-0.125 -0.125 25.75 76.25" enable-background="new -0.125 -0.125 25.75 76.25"
	 xml:space="preserve">
<g>
	<path fill="#DBB389" d="M7.617,16.587c1.586,0,3.73,0.166,8.688,0.166c3.448,0,5.593-0.166,7.279-0.166
		c0.287,0.227,0.287,1.975-0.06,2.195c-1.294,0.232-2.307,0.459-3.041,0.625c-0.967,0.287-1.294,0.799-1.35,2.148
		c-0.121,2.422-0.121,19.811-0.287,24.884c-0.227,4.449-0.739,7.615-2.371,10.49c-2.995,5.307-7.792,8.187-11.563,8.187
		c-2.14,0-4.129-0.851-4.688-1.979C0.172,62.968,0,62.354,0,62.236c0.172-1.071,0.957-3.438,1.359-4.289
		c1.677,1.134,4.903,2.541,6.711,2.541c1.354,0,2.592-0.342,3.549-1.524c1.53-1.979,1.757-3.84,1.807-8.737
		c0.056-7.233,0.056-24.956-0.105-27.769c-0.12-1.471-0.287-2.488-1.862-2.932c-1.072-0.285-2.095-0.463-3.952-0.744
		C7.219,18.45,7.335,16.813,7.617,16.587z"/>
</g>
</svg>
