<?xml version="1.0" encoding="utf-8"?>
<!-- Generator: Adobe Illustrator 16.0.0, SVG Export Plug-In . SVG Version: 6.00 Build 0)  -->
<!DOCTYPE svg PUBLIC "-//W3C//DTD SVG 1.1//EN" "http://www.w3.org/Graphics/SVG/1.1/DTD/svg11.dtd">
<svg version="1.1" id="圖層_1" xmlns="http://www.w3.org/2000/svg" xmlns:xlink="http://www.w3.org/1999/xlink" x="0px" y="0px"
	 width="29.458px" height="76.25px" viewBox="25.375 111.208 29.458 76.25" enable-background="new 25.375 111.208 29.458 76.25"
	 xml:space="preserve">
<path fill="#DBB389" d="M52.547,147.744c-0.493,1.063-1.34,2.881-2.049,3.815c-0.932,1.323-1.591,1.688-2.789,1.688
	c-0.981,0-6.609,0.035-7.496-0.23c-0.574-0.223-1.021-1.059-1.021-1.77c-0.081-1.776-0.081-5.24-0.081-8.119
	c0-0.176,0.136-0.356,0.262-0.356c2.039,0,4.964-0.035,6.429,0.135c0.619,0.092,1.058,0.398,1.238,1.068
	c0.222,0.578,0.222,0.971,0.448,2.032c0.267,0.269,1.813,0.228,2.079,0c-0.04-1.368-0.086-2.834-0.086-4.34
	c0-1.687,0.227-3.373,0.313-4.396c-0.227-0.262-1.596-0.356-2.039-0.176c-0.131,0.709-0.302,1.42-0.493,1.953
	c-0.222,0.664-0.569,1.063-1.238,1.152c-1.772,0.176-4.339,0.137-6.65,0.137c-0.126,0-0.262-0.227-0.262-0.313
	c0-2.6,0.027-4.953,0.033-7.553l2.473-2.096c1.875-0.013,4.58-0.004,5.029,0.025c1.244,0.091,1.677,0.488,2.034,1.597
	c0.227,0.76,0.442,1.379,0.493,2.612c0.222,0.181,1.727,0.23,1.993-0.086c0.04-1.901,0.443-5.1,0.755-6.338
	c0-0.096-0.131-0.227-0.227-0.268c-1.066,0.086-3.407,0.137-5.139,0.137h-2.201l5.724-4.852l-0.836-0.986l-21.201,17.969
	l0.836,0.986l5.926-5.022c0.004,1.372,0.004,2.956,0.004,4.583c0,4.924,0.04,9.577-0.051,10.331c-0.08,1.416-0.393,2-1.455,2.262
	c-0.851,0.221-2.265,0.352-3.815,0.533c-0.227,0.256-0.182,1.602,0.045,1.777c1.863,0,4.878-0.139,7.849-0.139
	c3.236,0,7.536,0.176,12.232,0.176c2.266,0,2.618-0.355,2.835-0.885c0.806-1.598,1.736-4.924,1.953-6.39
	C54.183,148.092,52.895,147.695,52.547,147.744z"/>
</svg>
